<svg width="160" height="160" viewBox="0 0 160 160" fill="none" xmlns="http://www.w3.org/2000/svg">
<g id="Bg">
<path id="Vector" d="M150.693 44.0784C182.431 105.203 126.641 174.17 60.1308 157.333C30.2746 149.908 6.27457 124.026 1.30725 93.6471C-4.33981 63.4248 9.30725 30.9542 34.8236 13.8562C69.804 -10.1961 118.275 -2.19608 143.32 32.2091C143.477 32.366 143.425 32.6275 143.216 32.7843C143.059 32.9412 142.797 32.8889 142.641 32.6797C139.19 28.2353 135.268 24.2092 130.98 20.6013C123.922 14.5882 115.66 9.88235 106.928 6.69281C62.4837 -9.41177 13.6994 17.3595 3.97391 63.8431C-7.00648 115.922 37.2811 163.869 90.0916 156.706C130.824 151.582 161.098 113.987 157.752 73.098C157.02 63.2157 154.405 53.4379 150.065 44.4444C149.961 44.2876 150.065 44.0784 150.222 43.9739C150.379 43.8693 150.588 43.9216 150.693 44.0784Z" fill="white"/>
</g>
</svg>
