<svg width="24" height="25" viewBox="0 0 24 25" fill="none" xmlns="http://www.w3.org/2000/svg">
<g id="ArrowRight">
<path id="Vector" d="M20.7806 13.0306L14.0306 19.7806C13.8899 19.9213 13.699 20.0004 13.5 20.0004C13.301 20.0004 13.1101 19.9213 12.9694 19.7806C12.8286 19.6399 12.7496 19.449 12.7496 19.25C12.7496 19.051 12.8286 18.8601 12.9694 18.7194L18.4397 13.25H3.75C3.55109 13.25 3.36032 13.171 3.21967 13.0303C3.07902 12.8897 3 12.6989 3 12.5C3 12.3011 3.07902 12.1103 3.21967 11.9697C3.36032 11.829 3.55109 11.75 3.75 11.75H18.4397L12.9694 6.28061C12.8286 6.13988 12.7496 5.94901 12.7496 5.74999C12.7496 5.55097 12.8286 5.3601 12.9694 5.21936C13.1101 5.07863 13.301 4.99957 13.5 4.99957C13.699 4.99957 13.8899 5.07863 14.0306 5.21936L20.7806 11.9694C20.8504 12.039 20.9057 12.1217 20.9434 12.2128C20.9812 12.3038 21.0006 12.4014 21.0006 12.5C21.0006 12.5986 20.9812 12.6961 20.9434 12.7872C20.9057 12.8782 20.8504 12.961 20.7806 13.0306Z" fill="#F5F6F6"/>
</g>
</svg>
