<svg width="24" height="25" viewBox="0 0 24 25" fill="none" xmlns="http://www.w3.org/2000/svg">
<g id="ReadCvLogo">
<path id="Vector" d="M19.7606 4.17969L7.54963 2.02344C7.1579 1.9545 6.75483 2.04397 6.42906 2.27217C6.10329 2.50037 5.88149 2.84861 5.81244 3.24031L3.02338 19.0841C2.98926 19.2782 2.99373 19.4771 3.03653 19.6694C3.07932 19.8618 3.15961 20.0439 3.27279 20.2052C3.38597 20.3665 3.52983 20.504 3.69616 20.6097C3.86248 20.7154 4.048 20.7873 4.24213 20.8213L16.4531 22.9775C16.6472 23.0117 16.8462 23.0074 17.0387 22.9647C17.2312 22.9219 17.4134 22.8417 17.5748 22.7285C17.7362 22.6153 17.8738 22.4714 17.9795 22.305C18.0853 22.1386 18.1572 21.953 18.1912 21.7588L20.9803 5.915C21.0486 5.52315 20.9585 5.1202 20.7297 4.79478C20.501 4.46936 20.1524 4.24811 19.7606 4.17969ZM16.7118 21.5L4.49994 19.3438L7.289 3.5L19.4999 5.65625L16.7118 21.5ZM8.37556 5.97688C8.4103 5.7811 8.52136 5.60713 8.68433 5.49321C8.8473 5.3793 9.04883 5.33475 9.24463 5.36938L17.0259 6.74281C17.2108 6.77521 17.3769 6.87579 17.4912 7.02467C17.6056 7.17356 17.66 7.35993 17.6436 7.54696C17.6272 7.73399 17.5413 7.90808 17.4028 8.03484C17.2643 8.16159 17.0833 8.23179 16.8956 8.23156C16.8516 8.2315 16.8077 8.22774 16.7643 8.22031L8.98306 6.84594C8.78729 6.8112 8.61332 6.70014 8.4994 6.53717C8.38548 6.37421 8.34094 6.17267 8.37556 5.97688ZM7.85619 8.93188C7.87328 8.83485 7.90932 8.74215 7.96225 8.65906C8.01518 8.57597 8.08397 8.50412 8.16467 8.44762C8.24538 8.39111 8.33642 8.35107 8.43261 8.32976C8.52879 8.30845 8.62823 8.3063 8.72525 8.32344L16.5065 9.69781C16.6927 9.72896 16.8604 9.8292 16.9759 9.97853C17.0915 10.1279 17.1465 10.3153 17.1299 10.5034C17.1133 10.6915 17.0264 10.8664 16.8865 10.9932C16.7466 11.12 16.5641 11.1894 16.3753 11.1875C16.3309 11.1876 16.2866 11.1835 16.2431 11.1753L8.46181 9.80188C8.26619 9.76671 8.09252 9.65533 7.97897 9.4922C7.86541 9.32907 7.82125 9.12754 7.85619 8.93188ZM7.33588 11.8859C7.37127 11.6907 7.4826 11.5174 7.64549 11.4041C7.80838 11.2907 8.00955 11.2466 8.20494 11.2813L12.0937 11.9647C12.2785 11.9971 12.4445 12.0976 12.5589 12.2464C12.6733 12.3952 12.7277 12.5814 12.7115 12.7684C12.6952 12.9553 12.6095 13.1294 12.4711 13.2562C12.3328 13.3831 12.152 13.4534 11.9643 13.4534C11.9203 13.4534 11.8764 13.4497 11.8331 13.4422L7.94244 12.755C7.74683 12.72 7.5731 12.6089 7.45937 12.4459C7.34565 12.283 7.30123 12.0816 7.33588 11.8859Z" fill="#F5F6F6"/>
</g>
</svg>
