<svg width="69" height="104" viewBox="0 0 69 104" fill="none" xmlns="http://www.w3.org/2000/svg">
<g id="Graphic" clip-path="url(#clip0_512_1705)">
<path id="Vector" d="M44.1525 13.8079C42.2615 20.5846 40.655 27.1911 37.2663 33.3677C35.523 36.5452 33.9818 39.7307 31.5095 42.4269C27.9847 46.2709 22.6702 50.6406 17.1578 50.87C16.3523 50.9036 14.625 50.6088 16.4368 50.6221C18.4026 50.6364 20.5578 50.8426 22.4794 51.2663C25.2675 51.8811 27.2129 54.4037 28.4596 56.8011C30.6889 61.0878 30.993 65.9536 30.9017 70.7217C30.8102 75.4915 29.8905 80.098 29.355 84.821C29.1618 86.5247 28.9448 88.2272 28.6713 89.9201C28.6499 90.0523 28.3239 91.9421 28.2068 91.5004C27.5532 89.0352 28.3445 85.7086 28.7318 83.2758C29.3514 79.3831 30.5621 75.6413 31.9769 71.9696C32.9639 69.4083 33.9839 66.6028 35.6867 64.4C37.7162 61.7744 40.9353 60.6147 44.0226 59.3104C44.0226 59.3104 52.0709 58.2905 51.2265 56.6288C49.2794 52.7976 41.1501 48.0382 40.4775 43.7276C39.7098 38.8068 40.7042 33.3819 41.8216 28.5904C43.0069 23.5085 44.0091 18.3567 45.7095 13.4241" stroke="#7DFFAF" stroke-width="1.5" stroke-linecap="round"/>
</g>
<defs>
<clipPath id="clip0_512_1705">
<rect width="45" height="95" fill="white" transform="translate(24.5879) rotate(15)"/>
</clipPath>
</defs>
</svg>
