<svg xmlns="http://www.w3.org/2000/svg" xmlns:xlink="http://www.w3.org/1999/xlink" viewBox="0,0,256,256" width="64px" height="64px"><g fill="#cdd0d4" fill-rule="nonzero" stroke="none" stroke-width="1" stroke-linecap="butt" stroke-linejoin="miter" stroke-miterlimit="10" stroke-dasharray="" stroke-dashoffset="0" font-family="none" font-weight="none" font-size="none" text-anchor="none" style="mix-blend-mode: normal"><g transform="scale(3.55556,3.55556)"><path d="M56,48c2.209,0 4,1.791 4,4c0,2.209 -1.791,4 -4,4c-1.202,0 -38.798,0 -40,0c-2.209,0 -4,-1.791 -4,-4c0,-2.209 1.791,-4 4,-4c1.202,0 38.798,0 40,0zM56,32c2.209,0 4,1.791 4,4c0,2.209 -1.791,4 -4,4c-1.202,0 -38.798,0 -40,0c-2.209,0 -4,-1.791 -4,-4c0,-2.209 1.791,-4 4,-4c1.202,0 38.798,0 40,0zM56,16c2.209,0 4,1.791 4,4c0,2.209 -1.791,4 -4,4c-1.202,0 -38.798,0 -40,0c-2.209,0 -4,-1.791 -4,-4c0,-2.209 1.791,-4 4,-4c1.202,0 38.798,0 40,0z"></path></g></g></svg>