<svg width="24" height="24" viewBox="0 0 24 24" fill="none" xmlns="http://www.w3.org/2000/svg">
<g id="logo-instagram 1">
<path id="Vector" d="M16.3748 3.24984C17.5342 3.25331 18.6451 3.71539 19.4648 4.53517C20.2846 5.35495 20.7467 6.46582 20.7502 7.62516V16.3748C20.7467 17.5342 20.2846 18.6451 19.4648 19.4648C18.6451 20.2846 17.5342 20.7467 16.3748 20.7502H7.62516C6.46582 20.7467 5.35495 20.2846 4.53517 19.4648C3.71539 18.6451 3.25331 17.5342 3.24984 16.3748V7.62516C3.25331 6.46582 3.71539 5.35495 4.53517 4.53517C5.35495 3.71539 6.46582 3.25331 7.62516 3.24984H16.3748ZM16.3748 1.5H7.62516C4.25625 1.5 1.5 4.25625 1.5 7.62516V16.3748C1.5 19.7437 4.25625 22.5 7.62516 22.5H16.3748C19.7437 22.5 22.5 19.7437 22.5 16.3748V7.62516C22.5 4.25625 19.7437 1.5 16.3748 1.5Z" fill="#F5F6F6"/>
<path id="Vector_2" d="M17.6873 7.62518C17.4278 7.62518 17.174 7.54821 16.9582 7.40399C16.7423 7.25977 16.5741 7.05478 16.4748 6.81496C16.3754 6.57513 16.3494 6.31123 16.4001 6.05663C16.4507 5.80203 16.5757 5.56816 16.7593 5.38461C16.9428 5.20105 17.1767 5.07605 17.4313 5.0254C17.6859 4.97476 17.9498 5.00075 18.1896 5.10009C18.4294 5.19943 18.6344 5.36766 18.7786 5.5835C18.9229 5.79934 18.9998 6.0531 18.9998 6.31268C19.0002 6.48515 18.9665 6.65599 18.9007 6.81539C18.8349 6.9748 18.7382 7.11964 18.6163 7.24159C18.4943 7.36354 18.3495 7.4602 18.1901 7.52603C18.0306 7.59186 17.8598 7.62555 17.6873 7.62518ZM12 8.49987C12.6923 8.49987 13.369 8.70515 13.9446 9.08975C14.5202 9.47436 14.9688 10.021 15.2337 10.6606C15.4986 11.3001 15.568 12.0039 15.4329 12.6829C15.2978 13.3618 14.9645 13.9855 14.475 14.475C13.9855 14.9645 13.3618 15.2979 12.6828 15.4329C12.0039 15.568 11.3001 15.4987 10.6606 15.2337C10.021 14.9688 9.47433 14.5202 9.08973 13.9446C8.70513 13.369 8.49985 12.6923 8.49985 12C8.50084 11.072 8.86992 10.1823 9.52611 9.52614C10.1823 8.86995 11.072 8.50086 12 8.49987ZM12 6.75003C10.9617 6.75003 9.94662 7.05793 9.08326 7.63481C8.2199 8.21169 7.54699 9.03163 7.14963 9.99094C6.75227 10.9503 6.64831 12.0059 6.85088 13.0243C7.05345 14.0427 7.55347 14.9781 8.28769 15.7123C9.02192 16.4466 9.95738 16.9466 10.9758 17.1492C11.9942 17.3517 13.0498 17.2478 14.0091 16.8504C14.9684 16.453 15.7883 15.7801 16.3652 14.9168C16.9421 14.0534 17.25 13.0384 17.25 12C17.25 10.6076 16.6969 9.27228 15.7123 8.28772C14.7277 7.30315 13.3924 6.75003 12 6.75003Z" fill="#F5F6F6"/>
</g>
</svg>
