<svg width="24" height="25" viewBox="0 0 24 25" fill="none" xmlns="http://www.w3.org/2000/svg">
<g clip-path="url(#clip0_512_1665)">
<path d="M0.264038 0.462219H23.736V23.9344H0.264038V0.462219Z" fill="#9955E8"/>
<path d="M21.815 18.3362C21.6431 17.2654 20.9449 16.366 18.8765 15.5273C18.158 15.1971 17.357 14.9607 17.1184 14.4162C17.0336 14.0993 17.0224 13.9208 17.076 13.729C17.2299 13.1065 17.973 12.9124 18.5619 13.0909C18.9412 13.218 19.3003 13.5103 19.5169 13.9767C20.5297 13.3208 20.5277 13.3251 21.2349 12.8743C20.976 12.4729 20.8378 12.2877 20.6683 12.1159C20.0591 11.4355 19.229 11.085 17.9015 11.1118L17.21 11.2013C16.5474 11.3687 15.9159 11.7165 15.5456 12.1828C14.4345 13.4436 14.7514 15.6501 16.1034 16.5582C17.4354 17.5579 19.3922 17.7853 19.6421 18.7202C19.8853 19.8647 18.801 20.2352 17.7232 20.1036C16.929 19.9384 16.4872 19.5347 16.0097 18.8007C15.1307 19.3093 15.1307 19.3093 14.2269 19.8291C14.4412 20.2977 14.6664 20.5097 15.0257 20.9157C16.7259 22.6403 20.9807 22.5555 21.7438 19.9452C21.7747 19.8555 21.9802 19.2578 21.815 18.3362ZM13.0241 11.25H10.8287L10.8197 16.926C10.8197 18.1332 10.8821 19.2398 10.6858 19.579C10.3646 20.2461 9.53229 20.1634 9.15298 20.034C8.76692 19.8443 8.57061 19.5745 8.34317 19.1931C8.28073 19.0836 8.23386 18.9988 8.21811 18.9923L6.43311 20.0854C6.72992 20.6946 7.16717 21.2233 7.72723 21.5668C8.56386 22.069 9.68829 22.2229 10.8643 21.9529C11.6297 21.73 12.29 21.2682 12.6358 20.5652C13.1357 19.6437 13.0284 18.5282 13.0239 17.2945C13.0352 15.2817 13.0241 13.2692 13.0241 11.25Z" fill="#2C243B"/>
</g>
<defs>
<clipPath id="clip0_512_1665">
<rect width="24" height="24" fill="white" transform="translate(0 0.198242)"/>
</clipPath>
</defs>
</svg>
