<svg width="24" height="24" viewBox="0 0 24 24" fill="none" xmlns="http://www.w3.org/2000/svg">
<g id="Frame" clip-path="url(#clip0_512_1680)">
<path id="Vector" d="M9.24938 11.625H14.7167C16.2386 11.625 17.4375 10.3372 17.4375 8.80891V3.59678C17.4375 2.11328 16.194 0.998784 14.7084 0.751284C13.7683 0.594721 12.7969 0.523471 11.8609 0.527971C10.9253 0.532284 10.0586 0.611971 9.27244 0.751284C6.95588 1.16022 6.5625 2.0171 6.5625 3.59678V5.62497H12V6.37497H4.458C2.86725 6.37497 1.47413 7.33272 1.03857 9.15203C0.535878 11.237 0.513565 12.5118 1.03857 14.6889C1.42763 16.3093 2.35669 17.4375 3.94763 17.4375H5.8125V14.991C5.8125 13.184 7.39275 11.625 9.24938 11.625ZM8.90475 4.29185C8.33738 4.29185 7.87763 3.82703 7.87763 3.25216C7.87763 2.67485 8.33719 2.20572 8.90475 2.20572C9.47007 2.20572 9.93207 2.67485 9.93207 3.25216C9.93188 3.82703 9.46988 4.29185 8.90475 4.29185ZM22.9277 9.15203C22.5343 7.56803 21.7834 6.37497 20.1904 6.37497H18.1875V8.80891C18.1875 10.6933 16.5386 12.1875 14.7167 12.1875H9.24938C7.75163 12.1875 6.5625 13.5611 6.5625 15.0611V20.2736C6.5625 21.7567 7.82719 22.6293 9.27413 23.055C11.007 23.5644 12.648 23.6565 14.7212 23.055C16.0991 22.6558 17.4375 21.8529 17.4375 20.2736V18.1875H12V17.4375H20.1904C21.7811 17.4375 22.3742 16.3545 22.9277 14.6887C23.499 12.974 23.4744 11.3514 22.9277 9.15203ZM15.0611 19.5782C15.6287 19.5782 16.0884 20.043 16.0884 20.6182C16.0884 21.195 15.6289 21.6643 15.0611 21.6643C14.4958 21.6643 14.034 21.1952 14.034 20.6182C14.034 20.043 14.4958 19.5782 15.0611 19.5782Z" fill="#9955E8"/>
</g>
<defs>
<clipPath id="clip0_512_1680">
<rect width="24" height="24" fill="white"/>
</clipPath>
</defs>
</svg>
