<svg width="24" height="24" viewBox="0 0 24 24" fill="none" xmlns="http://www.w3.org/2000/svg">
<g id="Frame">
<g id="Group">
<path id="Vector" d="M11.9999 14.1375C13.1804 14.1375 14.1374 13.1805 14.1374 12C14.1374 10.8195 13.1804 9.86249 11.9999 9.86249C10.8194 9.86249 9.86243 10.8195 9.86243 12C9.86243 13.1805 10.8194 14.1375 11.9999 14.1375Z" fill="#9955E8"/>
<path id="Vector_2" d="M20.1187 8.47499C19.7062 8.32499 19.275 8.17499 18.8249 8.04374C18.9375 7.59374 19.0312 7.14374 19.1062 6.71249C19.5 4.23749 19.0687 2.49374 17.8687 1.81874C17.5124 1.61249 17.1187 1.51874 16.6687 1.51874C15.3562 1.51874 13.6874 2.49374 12 4.12499C10.3125 2.49374 8.6437 1.51874 7.3312 1.51874C6.8812 1.51874 6.48745 1.61249 6.1312 1.81874C4.9312 2.51249 4.49995 4.25624 4.8937 6.71249C4.9687 7.14374 5.06245 7.59374 5.17495 8.04374C4.72495 8.17499 4.2937 8.30624 3.8812 8.47499C1.53745 9.37499 0.262451 10.6125 0.262451 12C0.262451 13.3875 1.5562 14.625 3.8812 15.525C4.2937 15.675 4.72495 15.825 5.17495 15.9562C5.06245 16.4062 4.9687 16.8562 4.8937 17.2875C4.49995 19.7625 4.9312 21.5062 6.1312 22.1812C6.48745 22.3875 6.8812 22.4812 7.3312 22.4812C8.66245 22.4812 10.3312 21.5062 12 19.875C13.6874 21.5062 15.3562 22.4812 16.6687 22.4812C17.1187 22.4812 17.5124 22.3875 17.8687 22.1812C19.0687 21.4875 19.5 19.7437 19.1062 17.2875C19.0312 16.8562 18.9375 16.4062 18.8249 15.9562C19.275 15.825 19.7062 15.6937 20.1187 15.525C22.4625 14.625 23.7374 13.3875 23.7374 12C23.7374 10.6125 22.4625 9.37499 20.1187 8.47499ZM17.3437 2.75624C18.1124 3.20624 18.375 4.59374 18.0562 6.56249C18 6.95624 17.9062 7.36874 17.7937 7.79999C16.8187 7.57499 15.7874 7.42499 14.7 7.33124C14.0625 6.43124 13.4062 5.62499 12.7499 4.89374C14.1375 3.52499 15.5437 2.58749 16.6875 2.58749C16.9312 2.58749 17.1562 2.64374 17.3437 2.75624ZM15.2437 13.875C14.9062 14.475 14.5124 15.075 14.0999 15.675C13.4062 15.7312 12.7125 15.75 12 15.75C11.2687 15.75 10.575 15.7312 9.89995 15.675C9.48745 15.075 9.11245 14.475 8.77495 13.875C8.4187 13.2562 8.0812 12.6187 7.7812 12C8.0812 11.3812 8.4187 10.7437 8.77495 10.125C9.11245 9.52499 9.5062 8.92499 9.9187 8.32499C10.6125 8.26874 11.3062 8.24999 12.0187 8.24999C12.7499 8.24999 13.4437 8.26874 14.1187 8.32499C14.5312 8.92499 14.9062 9.52499 15.2437 10.125C15.5999 10.7437 15.9374 11.3812 16.2374 12C15.9187 12.6187 15.5999 13.2375 15.2437 13.875ZM16.7999 13.2562C17.0812 13.9125 17.3062 14.55 17.5124 15.1875C16.875 15.3375 16.1999 15.45 15.4874 15.5437C15.7124 15.1875 15.9562 14.8125 16.1624 14.4187C16.3874 14.025 16.5937 13.6312 16.7999 13.2562ZM12 18.3375C11.5499 17.85 11.1187 17.325 10.7062 16.7812C11.1374 16.8 11.5687 16.8187 12 16.8187C12.4312 16.8187 12.8625 16.8 13.2937 16.7812C12.8812 17.325 12.45 17.85 12 18.3375ZM8.51245 15.525C7.79995 15.4312 7.12495 15.3187 6.48745 15.1687C6.6937 14.55 6.9187 13.8937 7.19995 13.2375C7.4062 13.6125 7.61245 14.0062 7.83745 14.3812C8.06245 14.7937 8.28745 15.15 8.51245 15.525ZM7.19995 10.7437C6.9187 10.0875 6.6937 9.44999 6.48745 8.81249C7.12495 8.66249 7.79995 8.54999 8.51245 8.45624C8.28745 8.81249 8.0437 9.18749 7.83745 9.58124C7.61245 9.97499 7.4062 10.3687 7.19995 10.7437ZM12 5.66249C12.45 6.14999 12.8812 6.67499 13.2937 7.21874C12.8625 7.19999 12.4312 7.18124 12 7.18124C11.5687 7.18124 11.1374 7.19999 10.7062 7.21874C11.1187 6.67499 11.5499 6.14999 12 5.66249ZM16.1624 9.59999L15.4874 8.47499C16.1999 8.56874 16.875 8.68124 17.5124 8.83124C17.3062 9.44999 17.0812 10.1062 16.7999 10.7625C16.5937 10.3687 16.3874 9.97499 16.1624 9.59999ZM5.9437 6.56249C5.62495 4.59374 5.88745 3.20624 6.6562 2.75624C6.8437 2.64374 7.0687 2.58749 7.31245 2.58749C8.43745 2.58749 9.8437 3.50624 11.25 4.89374C10.5937 5.60624 9.93745 6.43124 9.29995 7.33124C8.21245 7.42499 7.1812 7.59374 6.2062 7.79999C6.0937 7.36874 6.0187 6.95624 5.9437 6.56249ZM1.31245 12C1.31245 11.1187 2.3812 10.1812 4.2562 9.48749C4.6312 9.33749 5.0437 9.20624 5.4562 9.09374C5.7562 10.0312 6.1312 11.025 6.5812 12.0187C6.1312 13.0125 5.73745 13.9875 5.4562 14.925C2.8687 14.175 1.31245 13.05 1.31245 12ZM6.6562 21.2437C5.88745 20.7937 5.62495 19.4062 5.9437 17.4375C5.99995 17.0437 6.0937 16.6312 6.2062 16.2C7.1812 16.425 8.21245 16.575 9.29995 16.6687C9.93745 17.5687 10.5937 18.375 11.25 19.1062C9.86245 20.475 8.4562 21.4125 7.31245 21.4125C7.0687 21.4125 6.8437 21.3562 6.6562 21.2437ZM18.0562 17.4375C18.375 19.4062 18.1124 20.7937 17.3437 21.2437C17.1562 21.3562 16.9312 21.4125 16.6875 21.4125C15.5624 21.4125 14.1562 20.4937 12.7499 19.1062C13.4062 18.3937 14.0625 17.5687 14.7 16.6687C15.7874 16.575 16.8187 16.4062 17.7937 16.2C17.9062 16.6312 17.9812 17.0437 18.0562 17.4375ZM19.7437 14.5125C19.3687 14.6625 18.9562 14.7937 18.5437 14.9062C18.2437 13.9687 17.8687 12.975 17.4187 11.9812C17.8687 10.9875 18.2624 10.0125 18.5437 9.07499C21.1312 9.82499 22.6874 10.95 22.6874 12C22.6874 12.8812 21.5999 13.8187 19.7437 14.5125Z" fill="#9955E8"/>
</g>
</g>
</svg>
